HIERARCHY
ROOT Hips
{
	OFFSET 0.000000 0.000000 0.000000
	CHANNELS 6 Xposition Yposition Zposition Zrotation Yrotation Xrotation 
	JOINT LHipJoint
	{
		OFFSET 0.000000 0.000000 0.000000
		CHANNELS 3 Zrotation Yrotation Xrotation
		JOINT LeftUpLeg
		{
			OFFSET 8.178360 -10.767780 5.035740
			CHANNELS 3 Zrotation Yrotation Xrotation
			JOINT LeftLeg
			{
				OFFSET 14.688660 -40.356780 0.000000
				CHANNELS 3 Zrotation Yrotation Xrotation
				JOINT LeftFoot
				{
					OFFSET 15.373200 -42.237540 0.000000
					CHANNELS 3 Zrotation Yrotation Xrotation
					JOINT LeftToeBase
					{
						OFFSET 0.945840 -2.598660 13.935300
						CHANNELS 3 Zrotation Yrotation Xrotation
						End Site
						{
							OFFSET 0.000000 0.000000 0.000000
						}
					}
				}
			}
		}
	}
	JOINT RHipJoint
	{
		OFFSET 0.000000 0.000000 0.000000
		CHANNELS 3 Zrotation Yrotation Xrotation
		JOINT RightUpLeg
		{
			OFFSET -7.833120 -10.767780 5.035740
			CHANNELS 3 Zrotation Yrotation Xrotation
			JOINT RightLeg
			{
				OFFSET -15.255180 -41.913300 0.000000
				CHANNELS 3 Zrotation Yrotation Xrotation
				JOINT RightFoot
				{
					OFFSET -15.409560 -42.337380 0.000000
					CHANNELS 3 Zrotation Yrotation Xrotation
					JOINT RightToeBase
					{
						OFFSET -0.988380 -2.715540 14.178900
						CHANNELS 3 Zrotation Yrotation Xrotation
						End Site
						{
							OFFSET 0.000000 0.000000 0.000000
						}
					}
				}
			}
		}
	}
	JOINT LowerBack
	{
		OFFSET 0.000000 0.000000 0.000000
		CHANNELS 3 Zrotation Yrotation Xrotation
		JOINT Spine
		{
			OFFSET 0.169620 12.213540 -1.160280
			CHANNELS 3 Zrotation Yrotation Xrotation
			JOINT Spine1
			{
				OFFSET 0.340320 12.293100 -0.256500
				CHANNELS 3 Zrotation Yrotation Xrotation
				JOINT Neck
				{
					OFFSET 0.000000 0.000000 0.000000
					CHANNELS 3 Zrotation Yrotation Xrotation
					JOINT Neck1
					{
						OFFSET -0.325020 10.477440 1.032120
						CHANNELS 3 Zrotation Yrotation Xrotation
						JOINT Head
						{
							OFFSET 0.624420 10.568160 -0.743820
							CHANNELS 3 Zrotation Yrotation Xrotation
							End Site
							{
								OFFSET 0.000000 0.000000 0.000000
							}
						}
					}
				}
				JOINT LeftShoulder
				{
					OFFSET 0.000000 0.000000 0.000000
					CHANNELS 3 Zrotation Yrotation Xrotation
					JOINT LeftArm
					{
						OFFSET 20.174460 7.205340 -1.867260
						CHANNELS 3 Zrotation Yrotation Xrotation
						JOINT LeftForeArm
						{
							OFFSET 29.898000 -0.000000 -0.000000
							CHANNELS 3 Zrotation Yrotation Xrotation
							JOINT LeftHand
							{
								OFFSET 20.901360 -0.000000 -0.000000
								CHANNELS 3 Zrotation Yrotation Xrotation
								JOINT LeftFingerBase
								{
									OFFSET 0.000000 0.000000 0.000000
									CHANNELS 3 Zrotation Yrotation Xrotation
									JOINT LeftHandIndex1
									{
										OFFSET 4.291560 -0.000000 -0.000000
										CHANNELS 3 Zrotation Yrotation Xrotation
										End Site
										{
											OFFSET 0.000000 0.000000 0.000000
										}
									}
								}
								JOINT LThumb
								{
									OFFSET 0.000000 0.000000 0.000000
									CHANNELS 3 Zrotation Yrotation Xrotation
									End Site
									{
										OFFSET 0.000000 0.000000 0.000000
									}
								}
							}
						}
					}
				}
				JOINT RightShoulder
				{
					OFFSET 0.000000 0.000000 0.000000
					CHANNELS 3 Zrotation Yrotation Xrotation
					JOINT RightArm
					{
						OFFSET -18.819600 8.244300 -2.427900
						CHANNELS 3 Zrotation Yrotation Xrotation
						JOINT RightForeArm
						{
							OFFSET -31.451400 -0.000000 -0.000000
							CHANNELS 3 Zrotation Yrotation Xrotation
							JOINT RightHand
							{
								OFFSET -20.665020 -0.000000 -0.000000
								CHANNELS 3 Zrotation Yrotation Xrotation
								JOINT RightFingerBase
								{
									OFFSET 0.000000 0.000000 0.000000
									CHANNELS 3 Zrotation Yrotation Xrotation
									JOINT RightHandIndex1
									{
										OFFSET -3.735180 -0.000000 -0.000000
										CHANNELS 3 Zrotation Yrotation Xrotation
										End Site
										{
											OFFSET 0.000000 0.000000 0.000000
										}
									}
								}
								JOINT RThumb
								{
									OFFSET 0.000000 0.000000 0.000000
									CHANNELS 3 Zrotation Yrotation Xrotation
									End Site
									{
										OFFSET 0.000000 0.000000 0.000000
									}
								}
							}
						}
					}
				}
			}
		}
	}
}
MOTION
Frames:	6
Frame Time:	0.0333333
-50.841354 106.416744 51.190560 177.555536 33.589852 -176.325637 -3.105347 1.952859 2.961753 -12.535120 -14.178953 -2.248256 -0.732626 5.099140 15.979215 1.483606 -11.707425 -3.129031 0.305800 -3.555200 -9.828500 0.396013 -1.142767 0.634000 7.790659 6.103587 -28.713715 -1.884481 -9.762473 27.662990 1.540657 -9.349667 -0.048585 -0.053600 1.493500 -4.107800 4.412240 5.661116 13.559334 -0.439144 8.448632 1.954364 -8.222849 4.357936 -5.186305 -7.127297 6.824352 -13.098882 -0.656186 20.208757 36.253172 5.071000 7.428900 19.970700 -6.216781 -1.896315 -1.449296 -85.990249 6.444576 13.750269 17.641179 -24.852356 -4.549755 -1.167281 -2.525301 6.645812 18.998382 25.603688 9.713800 -7.125000 0.000000 0.000000 -12.248300 59.295500 -4.317200 4.945243 0.064108 -1.382443 76.142714 -5.524767 9.718732 -20.757435 30.037574 -5.913228 0.279157 -0.077114 4.404772 -13.075903 7.513751 -1.790200 7.125000 0.000000 0.000000 9.790000 -22.245600 5.432700 
-53.642178 106.507344 52.511766 178.335633 33.147381 -176.686882 -3.115827 1.850581 2.811508 -12.523634 -14.309100 -3.720394 -0.549359 5.599531 17.388995 1.540460 -12.412131 -3.103498 0.217700 -3.003700 -8.289000 0.414681 -1.100447 0.675280 8.694588 5.035728 -29.093534 -2.180088 -10.250738 29.336865 1.512971 -9.111148 -1.470337 -0.165300 2.619600 -7.221400 5.131213 4.980883 14.377272 -0.311196 7.711416 1.818032 -8.208288 3.929362 -5.875765 -7.841823 3.766209 -11.243071 -1.564397 14.508404 34.904679 3.723500 5.197800 18.919600 -6.244142 -1.820760 -1.445901 -84.406769 6.199910 16.644955 17.613693 -24.844384 -4.573622 -1.151049 -2.448627 6.156021 19.099096 24.776779 9.487300 -7.125000 0.000000 0.000000 -11.603500 58.410800 -3.839200 4.866926 0.256114 -1.321519 77.057917 -4.656649 8.987678 -21.231875 30.574580 -6.161669 0.291736 -0.086807 3.794531 -13.568124 7.926907 -1.964000 7.125000 0.000000 0.000000 9.405600 -21.796600 5.311000 
-55.790790 106.570350 54.057978 177.819331 33.471817 -177.728284 -3.132713 1.706660 2.646784 -13.340974 -13.881064 -5.206994 -0.349868 6.080008 18.789405 1.540296 -13.282340 -2.717021 0.213100 -2.971700 -8.200000 0.333583 -1.053093 0.699288 9.463672 4.128463 -30.194380 -3.269382 -11.833059 34.777114 1.012125 -6.781200 -2.211007 -0.183200 2.756600 -7.601700 3.134093 4.270836 14.689209 0.027866 6.465876 2.074984 -6.039240 3.333809 -5.977988 -10.481133 0.565315 -10.345694 -1.079029 9.271271 34.165345 3.600300 2.777300 18.403400 -6.271583 -1.708879 -1.451181 -83.870556 4.965449 16.198493 17.932636 -25.268958 -4.748912 -1.192774 -2.343533 6.113348 19.856169 23.725157 9.518400 -7.125000 0.000000 0.000000 -10.130800 57.428400 -3.104900 4.851396 0.533503 -1.218283 76.820485 -2.259092 11.052984 -21.241097 30.530604 -6.152171 0.307137 -0.094884 3.805532 -14.093915 8.211816 -2.117900 7.125000 0.000000 0.000000 9.003400 -21.478400 5.144100 
-57.710202 106.632750 55.433190 178.959174 33.975989 -177.670403 -3.093728 1.637107 2.536466 -12.628053 -13.764870 -6.484939 -0.162984 6.556101 20.091780 1.610424 -13.220092 -3.328768 0.264100 -3.306200 -9.132300 0.264709 -1.037402 0.739852 11.625607 4.697264 -30.095092 -4.646050 -13.397784 40.837508 0.199018 -2.687602 -2.242757 -0.268200 3.331500 -9.203100 2.749769 3.898212 14.450131 0.416462 5.926313 2.186739 -4.731388 3.036097 -5.892528 -12.341587 -2.997999 -7.724580 -0.601060 3.045912 32.820096 3.225600 0.150900 17.314100 -6.216207 -1.550043 -1.421431 -82.770155 4.336494 16.096324 18.924072 -26.605000 -5.315893 -1.126867 -2.331382 5.819820 19.750170 23.868488 9.482200 -7.125000 0.000000 0.000000 -10.361400 57.520700 -3.199700 4.781910 0.794121 -1.088823 77.408970 -1.288511 12.741011 -21.851191 31.231343 -6.498217 0.291150 -0.100047 4.396280 -13.700210 8.548198 -2.139100 7.125000 0.000000 0.000000 9.284600 -21.150700 5.378800 
-59.325414 106.639950 56.739996 179.095564 32.891111 -178.293403 -3.092579 1.609241 2.448604 -12.560381 -14.150005 -7.068965 -0.073095 6.713354 20.507214 1.756305 -14.884802 -3.858499 0.518100 -4.613100 -12.808300 0.228329 -1.055414 0.815369 12.840147 4.991467 -28.798772 -6.138980 -14.761188 46.716672 -0.552027 1.529163 -2.741272 -0.636400 5.103800 -14.205000 1.681038 3.073698 14.200577 0.696343 4.660011 2.114656 -3.132172 2.391229 -6.198269 -13.904281 -6.228804 -4.174483 0.136878 -2.496681 31.993657 3.108700 -2.168800 16.468400 -6.120449 -1.361121 -1.396879 -81.654062 4.877995 16.169114 20.197780 -28.292964 -6.079640 -0.957296 -2.531165 2.673609 19.449097 26.002757 10.037700 -7.125000 0.000000 0.000000 -11.983800 59.722200 -4.344900 4.683864 1.004159 -0.972553 77.834947 -1.744801 15.662292 -22.966967 32.487064 -7.150899 0.265760 -0.106280 4.839388 -12.983396 9.091719 -2.149600 7.125000 0.000000 0.000000 9.794000 -20.626500 5.800100 
-60.571026 106.588950 58.058208 178.623105 31.592169 -179.020537 -3.105930 1.566990 2.383685 -12.683727 -14.029750 -7.685942 -0.062195 6.624756 20.215147 1.867324 -17.946034 -3.751447 0.575500 -4.857900 -13.503700 0.218288 -1.071924 0.884937 13.469093 6.098377 -26.505411 -7.471224 -15.724099 51.514324 -1.338745 6.810352 -3.069979 -0.366700 3.889600 -10.766100 -0.080718 2.494144 13.636329 0.859251 3.605843 2.132969 -1.404974 1.882090 -6.141252 -14.894306 -9.367034 -0.635021 1.099737 -8.053062 31.004680 3.032300 -4.467100 15.687900 -5.973893 -1.186806 -1.345750 -80.257197 5.286108 16.448604 21.722342 -30.209914 -7.039731 -0.809313 -2.634770 0.795184 19.170938 27.635385 10.381400 -7.125000 0.000000 0.000000 -13.463600 61.329100 -5.408500 4.611732 1.189329 -0.857183 78.457683 -2.526921 18.129898 -24.428117 34.080271 -8.027363 0.262655 -0.159988 5.018990 -13.054251 11.273161 -2.681400 7.125000 0.000000 0.000000 9.672900 -18.366200 6.221600 
